<svg width="49" height="48" viewBox="0 0 49 48" fill="none" xmlns="http://www.w3.org/2000/svg">
<rect y="32" width="8" height="8" fill="#DBFF00"/>
<rect x="41" y="32" width="8" height="8" fill="#DBFF00"/>
<rect y="24" width="8" height="8" fill="#DBFF00"/>
<rect x="41" y="24" width="8" height="8" fill="#DBFF00"/>
<rect y="16" width="8" height="8" fill="#DBFF00"/>
<rect x="41" y="16" width="8" height="8" fill="#DBFF00"/>
<rect y="8" width="8" height="8" fill="#DBFF00"/>
<rect x="41" y="8" width="8" height="8" fill="#DBFF00"/>
<rect x="8" y="40" width="8" height="8" fill="#DBFF00"/>
<rect x="8" y="32" width="8" height="8" fill="#DBFF00"/>
<rect x="8" y="24" width="8" height="8" fill="#DBFF00"/>
<rect x="8" y="16" width="8" height="8" fill="#DBFF00"/>
<rect x="8" y="8" width="8" height="8" fill="#DBFF00"/>
<rect x="16" y="32" width="9" height="8" fill="#DBFF00"/>
<rect x="16" y="16" width="9" height="8" fill="#DBFF00"/>
<rect x="16" y="8" width="9" height="8" fill="#DBFF00"/>
<rect x="16" width="9" height="8" fill="#DBFF00"/>
<rect x="8" width="9" height="8" fill="#DBFF00"/>
<rect x="25" y="40" width="8" height="8" fill="#DBFF00"/>
<rect x="25" y="32" width="8" height="8" fill="#DBFF00"/>
<rect x="25" y="24" width="8" height="8" fill="#DBFF00"/>
<rect x="25" y="16" width="8" height="8" fill="#DBFF00"/>
<rect x="25" y="8" width="8" height="8" fill="#DBFF00"/>
<rect x="25" width="8" height="8" fill="#DBFF00"/>
<rect x="33" y="32" width="8" height="8" fill="#DBFF00"/>
<rect x="33" y="16" width="8" height="8" fill="#DBFF00"/>
<rect x="33" y="8" width="8" height="8" fill="#DBFF00"/>
</svg>
