<svg width="41" height="49" viewBox="0 0 41 49" fill="none" xmlns="http://www.w3.org/2000/svg">
<rect width="8" height="8" fill="#DBFF00"/>
<rect y="8" width="8" height="8" fill="#DBFF00"/>
<rect y="16" width="8" height="9" fill="#DBFF00"/>
<rect y="25" width="8" height="8" fill="#DBFF00"/>
<rect y="33" width="8" height="8" fill="#DBFF00"/>
<rect y="41" width="8" height="8" fill="#DBFF00"/>
<rect x="8" width="8" height="8" fill="#DBFF00"/>
<rect x="8" y="16" width="8" height="9" fill="#DBFF00"/>
<rect x="8" y="25" width="8" height="8" fill="#DBFF00"/>
<rect x="8" y="33" width="8" height="8" fill="#DBFF00"/>
<rect x="16" width="9" height="8" fill="#DBFF00"/>
<rect x="16" y="8" width="9" height="8" fill="#DBFF00"/>
<rect x="16" y="16" width="9" height="9" fill="#DBFF00"/>
<rect x="16" y="33" width="9" height="8" fill="#DBFF00"/>
<rect x="16" y="41" width="9" height="8" fill="#DBFF00"/>
<rect x="25" width="8" height="8" fill="#DBFF00"/>
<rect x="25" y="16" width="8" height="9" fill="#DBFF00"/>
<rect x="25" y="25" width="8" height="8" fill="#DBFF00"/>
<rect x="25" y="33" width="8" height="8" fill="#DBFF00"/>
<rect x="33" width="8" height="8" fill="#DBFF00"/>
<rect x="33" y="8" width="8" height="8" fill="#DBFF00"/>
<rect x="33" y="16" width="8" height="9" fill="#DBFF00"/>
<rect x="33" y="25" width="8" height="8" fill="#DBFF00"/>
<rect x="33" y="33" width="8" height="8" fill="#DBFF00"/>
<rect x="33" y="41" width="8" height="8" fill="#DBFF00"/>
</svg>
