<svg width="192" height="63" viewBox="0 0 192 63" fill="none" xmlns="http://www.w3.org/2000/svg">
<g clip-path="url(#clip0_2378_13855)">
<rect width="192" height="63" fill="white"/>
<rect x="27" y="13" width="139" height="50" fill="#DBFF00"/>
<rect x="179" y="50" width="13" height="13" fill="#DBFF00"/>
<rect x="14" y="50" width="13" height="13" fill="#DBFF00"/>
<rect y="37" width="14" height="13" fill="#DBFF00"/>
<rect x="14" width="37" height="13" fill="#DBFF00"/>
<rect x="166" y="26" width="13" height="24" fill="#DBFF00"/>
<rect x="166" y="1" width="13" height="12" fill="#DBFF00"/>
<path d="M59.8469 36.7246C62.0899 38.0168 63.2114 39.9672 63.2114 42.576C63.2114 44.7459 62.4434 46.5257 60.9074 47.9154C59.3714 49.3051 57.4819 50 55.2389 50H44.3771V24.4H54.4709C56.6651 24.4 58.5059 25.0827 59.9931 26.448C61.5048 27.789 62.2606 29.5078 62.2606 31.6046C62.2606 33.7257 61.456 35.4324 59.8469 36.7246ZM54.4709 29.1177H49.424V34.7497H54.4709C55.251 34.7497 55.8971 34.4815 56.4091 33.9451C56.9455 33.4088 57.2137 32.7383 57.2137 31.9337C57.2137 31.1291 56.9577 30.4587 56.4457 29.9223C55.9337 29.3859 55.2754 29.1177 54.4709 29.1177ZM55.2389 45.2823C56.0922 45.2823 56.7992 45.0019 57.36 44.4411C57.9208 43.856 58.2011 43.1246 58.2011 42.2469C58.2011 41.3935 57.9208 40.6865 57.36 40.1257C56.7992 39.5406 56.0922 39.248 55.2389 39.248H49.424V45.2823H55.2389ZM70.8354 45.1726H81.624V50H65.7886V24.4H81.4411V29.2274H70.8354V34.6766H80.5269V39.4309H70.8354V45.1726ZM101.09 25.2777H97.1403V49.1223H101.09V53.6571H92.4226V20.7429H101.09V25.2777ZM113.874 31.2023C116.337 31.2023 118.434 32.141 120.165 34.0183C121.92 35.8712 122.798 38.1509 122.798 40.8571C122.798 43.5634 121.92 45.8552 120.165 47.7326C118.434 49.5855 116.337 50.512 113.874 50.512C111.314 50.512 109.339 49.6221 107.95 47.8423V50H103.232V24.4H107.95V33.872C109.339 32.0922 111.314 31.2023 113.874 31.2023ZM109.376 44.5874C110.327 45.5383 111.534 46.0137 112.997 46.0137C114.459 46.0137 115.666 45.5383 116.617 44.5874C117.592 43.6122 118.08 42.3688 118.08 40.8571C118.08 39.3455 117.592 38.1143 116.617 37.1634C115.666 36.1882 114.459 35.7006 112.997 35.7006C111.534 35.7006 110.327 36.1882 109.376 37.1634C108.425 38.1143 107.95 39.3455 107.95 40.8571C107.95 42.3688 108.425 43.6122 109.376 44.5874ZM127.734 29.52C126.954 29.52 126.271 29.2396 125.686 28.6789C125.125 28.0937 124.845 27.411 124.845 26.6309C124.845 25.8507 125.125 25.168 125.686 24.5829C126.271 23.9977 126.954 23.7051 127.734 23.7051C128.539 23.7051 129.221 23.9977 129.782 24.5829C130.367 25.168 130.66 25.8507 130.66 26.6309C130.66 27.411 130.367 28.0937 129.782 28.6789C129.221 29.2396 128.539 29.52 127.734 29.52ZM125.393 50V31.7143H130.111V50H125.393ZM137.428 35.4811L134.173 30.3977H140.683L137.428 35.4811ZM134.173 50L137.428 44.9166L140.683 50H134.173ZM151.993 20.7429V53.6571H143.326V49.1223H147.275V25.2777H143.326V20.7429H151.993Z" fill="#202020"/>
</g>
<defs>
<clipPath id="clip0_2378_13855">
<rect width="192" height="63" fill="white"/>
</clipPath>
</defs>
</svg>
