<svg width="36" height="36" viewBox="0 0 36 36" fill="none" xmlns="http://www.w3.org/2000/svg">
<path d="M34.7167 10.3256V25.2465C34.7167 30.3969 30.5414 34.5721 25.3911 34.5721H10.4701C5.31975 34.5721 1.14453 30.3969 1.14453 25.2465V10.3256C1.14453 5.17522 5.31975 1 10.4701 1H25.3911C30.5414 1 34.7167 5.17522 34.7167 10.3256Z" stroke="black" stroke-width="1.35" stroke-linecap="round" stroke-linejoin="round"/>
<path d="M23.1731 17.2719V20.7386C23.1731 24.1174 20.4341 26.8564 17.0554 26.8564H15.0162C11.6374 26.8564 8.89844 24.1174 8.89844 20.7386V17.2719C8.89844 16.934 9.17234 16.6602 9.51021 16.6602H22.5614C22.8993 16.6602 23.1731 16.934 23.1731 17.2719Z" stroke="black" stroke-width="1.35" stroke-linecap="round" stroke-linejoin="round"/>
<path d="M18.0742 14.6216C18.0742 13.602 18.8025 12.5823 20.2592 12.5823C21.868 12.5823 23.1723 11.2781 23.1723 9.66915V9.01367" stroke="black" stroke-width="1.35" stroke-linecap="round" stroke-linejoin="round"/>
<path d="M13.9961 14.6216V14.1118C13.9961 12.4225 15.3656 11.053 17.055 11.053C18.1812 11.053 19.0942 10.14 19.0942 9.01372V8.50391" stroke="black" stroke-width="1.35" stroke-linecap="round" stroke-linejoin="round"/>
<path d="M22.1523 16.6602H24.7014C26.1092 16.6602 27.2505 17.8014 27.2505 19.2092C27.2505 20.617 26.1092 21.7583 24.7014 21.7583H23.172" stroke="black" stroke-width="1.35" stroke-linecap="round" stroke-linejoin="round"/>
</svg>
