<svg width="36" height="36" viewBox="0 0 36 36" fill="none" xmlns="http://www.w3.org/2000/svg">
<path d="M17.7847 25.2471C21.9049 25.2471 25.2452 21.9069 25.2452 17.7866C25.2452 13.6663 21.9049 10.3262 17.7847 10.3262C13.6644 10.3262 10.3242 13.6663 10.3242 17.7866C10.3242 21.9069 13.6644 25.2471 17.7847 25.2471Z" stroke="black" stroke-width="1.35" stroke-linecap="round" stroke-linejoin="round"/>
<path d="M1 25.2465V10.3256C1 5.17522 5.17522 1 10.3256 1H25.2465C30.3969 1 34.5721 5.17522 34.5721 10.3256V25.2465C34.5721 30.3969 30.3969 34.5721 25.2465 34.5721H10.3256C5.17522 34.5721 1 30.3969 1 25.2465Z" stroke="black" stroke-width="1.35"/>
<path d="M28.043 7.54759L28.0621 7.52637" stroke="black" stroke-width="1.35" stroke-linecap="round" stroke-linejoin="round"/>
<circle cx="28.2852" cy="8.19727" r="1" fill="white" stroke="black"/>
</svg>
